<svg id="Layer_1" data-name="Layer 1" xmlns="http://www.w3.org/2000/svg" xmlns:xlink="http://www.w3.org/1999/xlink" viewBox="0 0 1023.81 893.08"><defs><style>.cls-1,.cls-4{stroke:#757575;}.cls-1,.cls-4,.cls-5,.cls-6{stroke-miterlimit:10;}.cls-1,.cls-4,.cls-5{stroke-width:0.5px;}.cls-1{fill:url(#linear-gradient);}.cls-2{fill:#415eaa;}.cls-3{fill:#5e77a8;}.cls-4{fill:url(#linear-gradient-2);}.cls-5{stroke:#f05a28;fill:url(#linear-gradient-3);}.cls-6{fill:none;stroke:#f05c22;}</style><linearGradient id="linear-gradient" x1="202.45" y1="49.67" x2="984.33" y2="508.05" gradientUnits="userSpaceOnUse"><stop offset="0" stop-color="#8eb6e0"/><stop offset="0.42" stop-color="#6889c5"/><stop offset="0.8" stop-color="#4b67b0"/><stop offset="1" stop-color="#405aa8"/></linearGradient><linearGradient id="linear-gradient-2" x1="59.57" y1="396.82" x2="841.52" y2="855.23" xlink:href="#linear-gradient"/><linearGradient id="linear-gradient-3" x1="71.56" y1="504.63" x2="246.88" y2="607.49" gradientUnits="userSpaceOnUse"><stop offset="0" stop-color="#fff100"/><stop offset="0.13" stop-color="#fee703"/><stop offset="0.34" stop-color="#fbcd0a"/><stop offset="0.61" stop-color="#f7a215"/><stop offset="0.94" stop-color="#f16725"/><stop offset="1" stop-color="#f05a28"/></linearGradient></defs><title>app-logo</title><rect class="cls-1" x="143.1" y="0.25" width="880.46" height="545.42" rx="60.28"/><rect class="cls-2" x="142.23" y="131.84" width="877" height="100.43"/><rect class="cls-3" x="142.23" y="297.2" width="509.27" height="100.43"/><rect class="cls-4" x="0.25" y="347.41" width="880.46" height="545.42" rx="60.18"/><rect class="cls-2" x="552.39" y="491.13" width="255.6" height="54.54" rx="27.27"/><rect class="cls-2" x="387.24" y="567.46" width="420.75" height="54.54" rx="27.27"/><rect class="cls-2" x="651.51" y="707.71" width="163.41" height="54.54" rx="27.27"/><rect class="cls-2" x="455.85" y="707.71" width="163.41" height="54.54" rx="27.27"/><rect class="cls-2" x="267.12" y="707.71" width="163.41" height="54.54" rx="27.27"/><rect class="cls-2" x="73.19" y="707.71" width="163.41" height="54.54" rx="27.27"/><rect class="cls-5" x="73.19" y="479.87" width="172.07" height="152.37" rx="30.2"/><rect class="cls-6" x="135.88" y="534.4" width="48.91" height="43.32"/><polyline class="cls-6" points="73.19 521 81.2 521 113.01 521 113.01 553.25 135.88 553.25"/><polyline class="cls-6" points="73.19 590.04 81.2 590.04 113.01 590.04 113.01 554.65"/><polyline class="cls-6" points="245.19 521 238.98 521 206.95 521 206.95 553.25 184.8 553.25"/><polyline class="cls-6" points="245.23 590.04 237.25 590.04 207.16 590.04 206.95 553.25"/><polyline class="cls-6" points="160.34 632.24 160.34 630.08 160.34 579.45"/><polyline class="cls-6" points="160.34 479.87 160.34 482.04 160.34 532.67"/></svg>