<svg xmlns="http://www.w3.org/2000/svg" xmlns:xlink="http://www.w3.org/1999/xlink" viewBox="0 0 150 150"><defs><style>.cls-1{fill:#fff;}.cls-2,.cls-5{stroke:#757575;}.cls-2,.cls-5,.cls-6,.cls-7{stroke-miterlimit:10;}.cls-2,.cls-5,.cls-7{stroke-width:0.5px;}.cls-2{fill:url(#linear-gradient);}.cls-3{fill:#415eaa;}.cls-4{fill:#5e77a8;}.cls-5{fill:url(#linear-gradient-2);}.cls-6{stroke:#f05a28;stroke-width:0.25px;fill:url(#linear-gradient-3);}.cls-7{fill:none;stroke:#f05c22;}</style><linearGradient id="linear-gradient" x1="39.4" y1="29.53" x2="131.27" y2="83.38" gradientUnits="userSpaceOnUse"><stop offset="0" stop-color="#8eb6e0"/><stop offset="0.42" stop-color="#6889c5"/><stop offset="0.8" stop-color="#4b67b0"/><stop offset="1" stop-color="#405aa8"/></linearGradient><linearGradient id="linear-gradient-2" x1="22.61" y1="70.32" x2="114.49" y2="124.18" xlink:href="#linear-gradient"/><linearGradient id="linear-gradient-3" x1="24.02" y1="82.98" x2="44.62" y2="95.07" gradientUnits="userSpaceOnUse"><stop offset="0" stop-color="#fff100"/><stop offset="0.13" stop-color="#fee703"/><stop offset="0.34" stop-color="#fbcd0a"/><stop offset="0.61" stop-color="#f7a215"/><stop offset="0.94" stop-color="#f16725"/><stop offset="1" stop-color="#f05a28"/></linearGradient></defs><title>ic_product_icon_192px</title><g id="Background"><rect class="cls-1" width="150" height="150" rx="12"/></g><g id="Layer_12" data-name="Layer 12"><rect class="cls-2" x="32.42" y="23.72" width="103.45" height="64.09" rx="7.08"/><rect class="cls-3" x="32.32" y="39.18" width="103.05" height="11.8"/><rect class="cls-4" x="32.32" y="58.61" width="59.84" height="11.8"/><rect class="cls-5" x="15.64" y="64.51" width="103.45" height="64.09" rx="7.07"/><rect class="cls-3" x="80.51" y="81.4" width="30.03" height="6.41" rx="3.2"/><rect class="cls-3" x="61.11" y="90.36" width="49.44" height="6.41" rx="3.2"/><rect class="cls-3" x="92.16" y="106.84" width="19.2" height="6.41" rx="3.2"/><rect class="cls-3" x="69.17" y="106.84" width="19.2" height="6.41" rx="3.2"/><rect class="cls-3" x="46.99" y="106.84" width="19.2" height="6.41" rx="3.2"/><rect class="cls-3" x="24.21" y="106.84" width="19.2" height="6.41" rx="3.2"/><rect class="cls-6" x="24.21" y="80.07" width="20.22" height="17.9" rx="3.55"/><rect class="cls-7" x="31.58" y="86.48" width="5.75" height="5.09"/><polyline class="cls-7" points="24.21 84.91 25.15 84.91 28.89 84.91 28.89 88.69 31.57 88.69"/><polyline class="cls-7" points="24.21 93.02 25.15 93.02 28.89 93.02 28.89 88.86"/><polyline class="cls-7" points="44.42 84.91 43.69 84.91 39.92 84.91 39.92 88.69 37.32 88.69"/><polyline class="cls-7" points="44.42 93.02 43.48 93.02 39.95 93.02 39.92 88.69"/><polyline class="cls-7" points="34.45 97.98 34.45 97.72 34.45 91.77"/><polyline class="cls-7" points="34.45 80.07 34.45 80.33 34.45 86.28"/></g></svg>