<svg id="Layer_12" data-name="Layer 12" xmlns="http://www.w3.org/2000/svg" xmlns:xlink="http://www.w3.org/1999/xlink" viewBox="0 0 120.74 105.38"><defs><style>.cls-1,.cls-4{stroke:#757575;}.cls-1,.cls-4,.cls-5,.cls-6{stroke-miterlimit:10;}.cls-1,.cls-4,.cls-6{stroke-width:0.5px;}.cls-1{fill:url(#linear-gradient);}.cls-2{fill:#415eaa;}.cls-3{fill:#5e77a8;}.cls-4{fill:url(#linear-gradient-2);}.cls-5{stroke:#f05a28;stroke-width:0.25px;fill:url(#linear-gradient-3);}.cls-6{fill:none;stroke:#f05c22;}</style><linearGradient id="linear-gradient" x1="24.01" y1="6.06" x2="115.88" y2="59.91" gradientUnits="userSpaceOnUse"><stop offset="0" stop-color="#8eb6e0"/><stop offset="0.42" stop-color="#6889c5"/><stop offset="0.8" stop-color="#4b67b0"/><stop offset="1" stop-color="#405aa8"/></linearGradient><linearGradient id="linear-gradient-2" x1="7.22" y1="46.85" x2="99.1" y2="100.71" xlink:href="#linear-gradient"/><linearGradient id="linear-gradient-3" x1="8.63" y1="59.51" x2="29.23" y2="71.6" gradientUnits="userSpaceOnUse"><stop offset="0" stop-color="#fff100"/><stop offset="0.13" stop-color="#fee703"/><stop offset="0.34" stop-color="#fbcd0a"/><stop offset="0.61" stop-color="#f7a215"/><stop offset="0.94" stop-color="#f16725"/><stop offset="1" stop-color="#f05a28"/></linearGradient></defs><title>logo_ic_product_icon_192px</title><rect class="cls-1" x="17.03" y="0.25" width="103.45" height="64.09" rx="7.08"/><rect class="cls-2" x="16.93" y="15.71" width="103.05" height="11.8"/><rect class="cls-3" x="16.93" y="35.14" width="59.84" height="11.8"/><rect class="cls-4" x="0.25" y="41.04" width="103.45" height="64.09" rx="7.07"/><rect class="cls-2" x="65.12" y="57.93" width="30.03" height="6.41" rx="3.2"/><rect class="cls-2" x="45.72" y="66.9" width="49.44" height="6.41" rx="3.2"/><rect class="cls-2" x="76.77" y="83.37" width="19.2" height="6.41" rx="3.2"/><rect class="cls-2" x="53.78" y="83.37" width="19.2" height="6.41" rx="3.2"/><rect class="cls-2" x="31.61" y="83.37" width="19.2" height="6.41" rx="3.2"/><rect class="cls-2" x="8.82" y="83.37" width="19.2" height="6.41" rx="3.2"/><rect class="cls-5" x="8.82" y="56.6" width="20.22" height="17.9" rx="3.55"/><rect class="cls-6" x="16.19" y="63.01" width="5.75" height="5.09"/><polyline class="cls-6" points="8.82 61.44 9.76 61.44 13.5 61.44 13.5 65.22 16.19 65.22"/><polyline class="cls-6" points="8.82 69.55 9.76 69.55 13.5 69.55 13.5 65.39"/><polyline class="cls-6" points="29.03 61.44 28.3 61.44 24.54 61.44 24.54 65.22 21.93 65.22"/><polyline class="cls-6" points="29.04 69.55 28.1 69.55 24.56 69.55 24.54 65.22"/><polyline class="cls-6" points="19.06 74.51 19.06 74.25 19.06 68.3"/><polyline class="cls-6" points="19.06 56.6 19.06 56.86 19.06 62.81"/></svg>